<mxfile host="app.diagrams.net" modified="2023-05-04T21:19:33.222Z" agent="Mozilla/5.0 (Macintosh; Intel Mac OS X 10_15_7) AppleWebKit/537.36 (KHTML, like Gecko) Chrome/112.0.0.0 Safari/537.36" etag="qN82g3FLZW--QsCBF2ti" version="21.2.7" type="device">
  <diagram name="Page-1" id="5f0bae14-7c28-e335-631c-24af17079c00">
    <mxGraphModel dx="3725" dy="2198" grid="1" gridSize="10" guides="1" tooltips="1" connect="1" arrows="1" fold="1" page="1" pageScale="1" pageWidth="1100" pageHeight="850" background="none" math="0" shadow="0">
      <root>
        <mxCell id="0" />
        <mxCell id="1" parent="0" />
        <mxCell id="39150e848f15840c-11" style="edgeStyle=none;rounded=0;html=1;dashed=1;labelBackgroundColor=none;startArrow=none;startFill=0;startSize=8;endArrow=open;endFill=0;endSize=16;fontFamily=Verdana;fontSize=12;entryX=0.5;entryY=0;entryDx=0;entryDy=0;entryPerimeter=0;exitX=0.5;exitY=1;exitDx=0;exitDy=0;" parent="1" edge="1" source="kJ7-zAYFYXH6Av_gGips-8">
          <mxGeometry relative="1" as="geometry">
            <mxPoint x="160" y="220" as="sourcePoint" />
            <mxPoint x="160" y="531" as="targetPoint" />
            <Array as="points">
              <mxPoint x="159.5" y="280" />
            </Array>
          </mxGeometry>
        </mxCell>
        <mxCell id="pfnRBpDnnf5gN-3sMGlf-151" value="credentials &lt;br&gt;verified /stored" style="edgeLabel;html=1;align=center;verticalAlign=middle;resizable=0;points=[];" parent="39150e848f15840c-11" vertex="1" connectable="0">
          <mxGeometry x="-0.2315" y="-2" relative="1" as="geometry">
            <mxPoint y="-1" as="offset" />
          </mxGeometry>
        </mxCell>
        <mxCell id="pfnRBpDnnf5gN-3sMGlf-7" style="edgeStyle=orthogonalEdgeStyle;rounded=0;orthogonalLoop=1;jettySize=auto;html=1;exitX=0.5;exitY=1;exitDx=0;exitDy=0;" parent="1" edge="1">
          <mxGeometry relative="1" as="geometry">
            <mxPoint x="215" y="200" as="sourcePoint" />
            <mxPoint x="215" y="200" as="targetPoint" />
          </mxGeometry>
        </mxCell>
        <mxCell id="pfnRBpDnnf5gN-3sMGlf-11" value="«component»&lt;br&gt;Loan" style="html=1;dropTarget=0;direction=east;" parent="1" vertex="1">
          <mxGeometry x="710" y="120" width="120" height="90" as="geometry" />
        </mxCell>
        <mxCell id="pfnRBpDnnf5gN-3sMGlf-12" value="" style="shape=module;jettyWidth=8;jettyHeight=4;direction=east;" parent="pfnRBpDnnf5gN-3sMGlf-11" vertex="1">
          <mxGeometry x="1" width="20" height="20" relative="1" as="geometry">
            <mxPoint x="-27" y="7" as="offset" />
          </mxGeometry>
        </mxCell>
        <mxCell id="pfnRBpDnnf5gN-3sMGlf-13" value="«component»&lt;br&gt;credit card" style="html=1;dropTarget=0;fontSize=11;direction=east;" parent="1" vertex="1">
          <mxGeometry x="530" y="120" width="130" height="100" as="geometry" />
        </mxCell>
        <mxCell id="pfnRBpDnnf5gN-3sMGlf-14" value="" style="shape=module;jettyWidth=8;jettyHeight=4;fontSize=11;direction=east;" parent="pfnRBpDnnf5gN-3sMGlf-13" vertex="1">
          <mxGeometry x="1" width="20" height="20" relative="1" as="geometry">
            <mxPoint x="-27" y="7" as="offset" />
          </mxGeometry>
        </mxCell>
        <mxCell id="pfnRBpDnnf5gN-3sMGlf-15" value="«component»&lt;br&gt;Bank Account" style="html=1;dropTarget=0;fontSize=11;direction=east;" parent="1" vertex="1">
          <mxGeometry x="410" y="120" width="100" height="100" as="geometry" />
        </mxCell>
        <mxCell id="pfnRBpDnnf5gN-3sMGlf-16" value="" style="shape=module;jettyWidth=8;jettyHeight=4;fontSize=11;direction=east;" parent="pfnRBpDnnf5gN-3sMGlf-15" vertex="1">
          <mxGeometry x="1" width="20" height="20" relative="1" as="geometry">
            <mxPoint x="-27" y="7" as="offset" />
          </mxGeometry>
        </mxCell>
        <mxCell id="pfnRBpDnnf5gN-3sMGlf-17" value="«component»&lt;br&gt;client" style="html=1;dropTarget=0;fontSize=11;direction=east;" parent="1" vertex="1">
          <mxGeometry x="350" y="360" width="120" height="70" as="geometry" />
        </mxCell>
        <mxCell id="pfnRBpDnnf5gN-3sMGlf-18" value="" style="shape=module;jettyWidth=8;jettyHeight=4;fontSize=11;direction=east;" parent="pfnRBpDnnf5gN-3sMGlf-17" vertex="1">
          <mxGeometry x="1" width="20" height="20" relative="1" as="geometry">
            <mxPoint x="-27" y="7" as="offset" />
          </mxGeometry>
        </mxCell>
        <mxCell id="pfnRBpDnnf5gN-3sMGlf-19" value="«component»&lt;br&gt;Bill Payment&amp;nbsp;" style="html=1;dropTarget=0;" parent="1" vertex="1">
          <mxGeometry x="860" y="120" width="170" height="90" as="geometry" />
        </mxCell>
        <mxCell id="pfnRBpDnnf5gN-3sMGlf-20" value="" style="shape=module;jettyWidth=8;jettyHeight=4;" parent="pfnRBpDnnf5gN-3sMGlf-19" vertex="1">
          <mxGeometry x="1" width="20" height="20" relative="1" as="geometry">
            <mxPoint x="-27" y="7" as="offset" />
          </mxGeometry>
        </mxCell>
        <mxCell id="pfnRBpDnnf5gN-3sMGlf-21" value="«component»&lt;br&gt;Banker" style="html=1;dropTarget=0;fontSize=11;" parent="1" vertex="1">
          <mxGeometry x="720" y="-40" width="100" height="50" as="geometry" />
        </mxCell>
        <mxCell id="pfnRBpDnnf5gN-3sMGlf-22" value="" style="shape=module;jettyWidth=8;jettyHeight=4;fontSize=11;" parent="pfnRBpDnnf5gN-3sMGlf-21" vertex="1">
          <mxGeometry x="1" width="20" height="20" relative="1" as="geometry">
            <mxPoint x="-27" y="7" as="offset" />
          </mxGeometry>
        </mxCell>
        <mxCell id="pfnRBpDnnf5gN-3sMGlf-34" style="edgeStyle=none;rounded=0;html=1;dashed=1;labelBackgroundColor=none;startArrow=none;startFill=0;startSize=8;endArrow=open;endFill=0;endSize=16;fontFamily=Verdana;fontSize=12;entryX=0.732;entryY=0.02;entryDx=0;entryDy=0;entryPerimeter=0;" parent="1" edge="1" target="pfnRBpDnnf5gN-3sMGlf-104">
          <mxGeometry relative="1" as="geometry">
            <mxPoint x="430" y="210" as="sourcePoint" />
            <mxPoint x="190" y="530" as="targetPoint" />
            <Array as="points">
              <mxPoint x="430" y="260" />
              <mxPoint x="190" y="260" />
            </Array>
          </mxGeometry>
        </mxCell>
        <mxCell id="pfnRBpDnnf5gN-3sMGlf-35" style="edgeStyle=none;rounded=0;html=1;dashed=1;labelBackgroundColor=none;startArrow=none;startFill=0;startSize=8;endArrow=open;endFill=0;endSize=16;fontFamily=Verdana;fontSize=12;" parent="1" edge="1">
          <mxGeometry relative="1" as="geometry">
            <mxPoint x="450" y="360" as="sourcePoint" />
            <mxPoint x="450" y="220" as="targetPoint" />
            <Array as="points">
              <mxPoint x="450" y="220" />
            </Array>
          </mxGeometry>
        </mxCell>
        <mxCell id="pfnRBpDnnf5gN-3sMGlf-172" value="uses" style="edgeLabel;html=1;align=center;verticalAlign=middle;resizable=0;points=[];" parent="pfnRBpDnnf5gN-3sMGlf-35" vertex="1" connectable="0">
          <mxGeometry x="-0.5429" y="2" relative="1" as="geometry">
            <mxPoint as="offset" />
          </mxGeometry>
        </mxCell>
        <mxCell id="pfnRBpDnnf5gN-3sMGlf-36" style="edgeStyle=none;rounded=0;html=1;dashed=1;labelBackgroundColor=none;startArrow=none;startFill=0;startSize=8;endArrow=open;endFill=0;endSize=16;fontFamily=Verdana;fontSize=12;exitX=1;exitY=0.857;exitDx=0;exitDy=0;exitPerimeter=0;" parent="1" source="pfnRBpDnnf5gN-3sMGlf-17" edge="1">
          <mxGeometry relative="1" as="geometry">
            <mxPoint x="730" y="400" as="sourcePoint" />
            <mxPoint x="560" y="220" as="targetPoint" />
            <Array as="points">
              <mxPoint x="560" y="420" />
            </Array>
          </mxGeometry>
        </mxCell>
        <mxCell id="pfnRBpDnnf5gN-3sMGlf-167" value="uses" style="edgeLabel;html=1;align=center;verticalAlign=middle;resizable=0;points=[];" parent="pfnRBpDnnf5gN-3sMGlf-36" vertex="1" connectable="0">
          <mxGeometry x="0.2" y="-2" relative="1" as="geometry">
            <mxPoint as="offset" />
          </mxGeometry>
        </mxCell>
        <mxCell id="pfnRBpDnnf5gN-3sMGlf-40" style="edgeStyle=none;rounded=0;html=1;dashed=1;labelBackgroundColor=none;startArrow=none;startFill=0;startSize=8;endArrow=open;endFill=0;endSize=16;fontFamily=Verdana;fontSize=12;" parent="1" edge="1">
          <mxGeometry relative="1" as="geometry">
            <mxPoint x="470" y="410" as="sourcePoint" />
            <mxPoint x="780" y="210" as="targetPoint" />
            <Array as="points">
              <mxPoint x="780" y="410" />
            </Array>
          </mxGeometry>
        </mxCell>
        <mxCell id="pfnRBpDnnf5gN-3sMGlf-49" value="request&amp;nbsp;" style="edgeLabel;html=1;align=center;verticalAlign=middle;resizable=0;points=[];" parent="pfnRBpDnnf5gN-3sMGlf-40" vertex="1" connectable="0">
          <mxGeometry x="-0.0862" y="1" relative="1" as="geometry">
            <mxPoint as="offset" />
          </mxGeometry>
        </mxCell>
        <mxCell id="pfnRBpDnnf5gN-3sMGlf-45" style="edgeStyle=none;rounded=0;html=1;dashed=1;labelBackgroundColor=none;startArrow=none;startFill=0;startSize=8;endArrow=open;endFill=0;endSize=16;fontFamily=Verdana;fontSize=12;" parent="1" edge="1">
          <mxGeometry relative="1" as="geometry">
            <mxPoint x="770" y="20" as="sourcePoint" />
            <mxPoint x="770" y="120" as="targetPoint" />
            <Array as="points">
              <mxPoint x="770" y="10" />
            </Array>
          </mxGeometry>
        </mxCell>
        <mxCell id="pfnRBpDnnf5gN-3sMGlf-48" style="edgeStyle=none;rounded=0;html=1;dashed=1;labelBackgroundColor=none;startArrow=none;startFill=0;startSize=8;endArrow=open;endFill=0;endSize=16;fontFamily=Verdana;fontSize=12;" parent="1" source="pfnRBpDnnf5gN-3sMGlf-21" edge="1">
          <mxGeometry relative="1" as="geometry">
            <mxPoint x="840" y="-110" as="sourcePoint" />
            <mxPoint x="840" y="530" as="targetPoint" />
            <Array as="points">
              <mxPoint x="840" y="-15" />
            </Array>
          </mxGeometry>
        </mxCell>
        <mxCell id="pfnRBpDnnf5gN-3sMGlf-50" value="&amp;nbsp;" style="edgeLabel;html=1;align=center;verticalAlign=middle;resizable=0;points=[];" parent="pfnRBpDnnf5gN-3sMGlf-48" vertex="1" connectable="0">
          <mxGeometry x="0.2375" y="1" relative="1" as="geometry">
            <mxPoint x="-31" y="-338" as="offset" />
          </mxGeometry>
        </mxCell>
        <mxCell id="pfnRBpDnnf5gN-3sMGlf-93" value="modify policies" style="edgeLabel;html=1;align=center;verticalAlign=middle;resizable=0;points=[];" parent="pfnRBpDnnf5gN-3sMGlf-48" vertex="1" connectable="0">
          <mxGeometry x="-0.8538" y="1" relative="1" as="geometry">
            <mxPoint x="-1" y="443" as="offset" />
          </mxGeometry>
        </mxCell>
        <mxCell id="pfnRBpDnnf5gN-3sMGlf-56" value="«component»&lt;br&gt;Transaction" style="html=1;dropTarget=0;whiteSpace=wrap;" parent="1" vertex="1">
          <mxGeometry x="270" y="120" width="120" height="100" as="geometry" />
        </mxCell>
        <mxCell id="pfnRBpDnnf5gN-3sMGlf-57" value="" style="shape=module;jettyWidth=8;jettyHeight=4;" parent="pfnRBpDnnf5gN-3sMGlf-56" vertex="1">
          <mxGeometry x="1" width="20" height="20" relative="1" as="geometry">
            <mxPoint x="-27" y="7" as="offset" />
          </mxGeometry>
        </mxCell>
        <mxCell id="pfnRBpDnnf5gN-3sMGlf-58" style="edgeStyle=none;rounded=0;html=1;dashed=1;labelBackgroundColor=none;startArrow=none;startFill=0;startSize=8;endArrow=open;endFill=0;endSize=16;fontFamily=Verdana;fontSize=12;entryX=0.578;entryY=1.037;entryDx=0;entryDy=0;entryPerimeter=0;" parent="1" target="pfnRBpDnnf5gN-3sMGlf-19" edge="1">
          <mxGeometry relative="1" as="geometry">
            <mxPoint x="470" y="400" as="sourcePoint" />
            <mxPoint x="620" y="180" as="targetPoint" />
            <Array as="points">
              <mxPoint x="960" y="400" />
            </Array>
          </mxGeometry>
        </mxCell>
        <mxCell id="pfnRBpDnnf5gN-3sMGlf-59" style="edgeStyle=none;rounded=0;html=1;dashed=1;labelBackgroundColor=none;startArrow=none;startFill=0;startSize=8;endArrow=open;endFill=0;endSize=16;fontFamily=Verdana;fontSize=12;entryX=0.598;entryY=-0.041;entryDx=0;entryDy=0;entryPerimeter=0;" parent="1" edge="1">
          <mxGeometry relative="1" as="geometry">
            <mxPoint x="1000" y="212" as="sourcePoint" />
            <mxPoint x="999.6999999999998" y="527.1300000000001" as="targetPoint" />
            <Array as="points">
              <mxPoint x="1000" y="263" />
            </Array>
          </mxGeometry>
        </mxCell>
        <mxCell id="pfnRBpDnnf5gN-3sMGlf-166" value="uses" style="edgeLabel;html=1;align=center;verticalAlign=middle;resizable=0;points=[];" parent="pfnRBpDnnf5gN-3sMGlf-59" vertex="1" connectable="0">
          <mxGeometry x="0.0789" y="4" relative="1" as="geometry">
            <mxPoint as="offset" />
          </mxGeometry>
        </mxCell>
        <mxCell id="pfnRBpDnnf5gN-3sMGlf-62" style="edgeStyle=none;rounded=0;html=1;dashed=1;labelBackgroundColor=none;startArrow=none;startFill=0;startSize=8;endArrow=open;endFill=0;endSize=16;fontFamily=Verdana;fontSize=12;exitX=0.838;exitY=1.01;exitDx=0;exitDy=0;exitPerimeter=0;" parent="1" source="pfnRBpDnnf5gN-3sMGlf-56" edge="1">
          <mxGeometry relative="1" as="geometry">
            <mxPoint x="370" y="230" as="sourcePoint" />
            <mxPoint x="370" y="221" as="targetPoint" />
            <Array as="points">
              <mxPoint x="370" y="360" />
            </Array>
          </mxGeometry>
        </mxCell>
        <mxCell id="pfnRBpDnnf5gN-3sMGlf-72" value="transfer money to &lt;br&gt;another account&amp;nbsp;" style="edgeLabel;html=1;align=center;verticalAlign=middle;resizable=0;points=[];" parent="pfnRBpDnnf5gN-3sMGlf-62" vertex="1" connectable="0">
          <mxGeometry x="-0.3581" y="2" relative="1" as="geometry">
            <mxPoint x="-12" y="-31" as="offset" />
          </mxGeometry>
        </mxCell>
        <mxCell id="pfnRBpDnnf5gN-3sMGlf-68" value="&lt;span style=&quot;box-sizing: border-box; margin: 0px; padding: 0px; border: 0px; vertical-align: baseline; color: rgb(39, 50, 57); font-family: Nunito, sans-serif; letter-spacing: 0.162px; text-align: justify; background-color: rgb(255, 255, 255);&quot;&gt;&lt;font style=&quot;font-size: 12px;&quot;&gt;Transaction Management System&lt;br&gt;[Software System]&lt;br&gt;&lt;/font&gt;&lt;/span&gt;" style="html=1;whiteSpace=wrap;" parent="1" vertex="1">
          <mxGeometry x="230" y="610" width="140" height="100" as="geometry" />
        </mxCell>
        <mxCell id="pfnRBpDnnf5gN-3sMGlf-69" value="&lt;span style=&quot;box-sizing: border-box; margin: 0px; padding: 0px; border: 0px; vertical-align: baseline; color: rgb(39, 50, 57); font-family: Nunito, sans-serif; letter-spacing: 0.162px; text-align: justify; background-color: rgb(255, 255, 255);&quot;&gt;&lt;font style=&quot;font-size: 11px;&quot;&gt;Loan Management System&lt;br&gt;[Software System]&lt;br&gt;&lt;/font&gt;&lt;/span&gt;" style="html=1;whiteSpace=wrap;" parent="1" vertex="1">
          <mxGeometry x="740" y="530" width="120" height="50" as="geometry" />
        </mxCell>
        <mxCell id="pfnRBpDnnf5gN-3sMGlf-70" value="&lt;span style=&quot;box-sizing: border-box; margin: 0px; padding: 0px; border: 0px; vertical-align: baseline; color: rgb(39, 50, 57); font-family: Nunito, sans-serif; letter-spacing: 0.162px; text-align: justify; background-color: rgb(255, 255, 255);&quot;&gt;Online Banking System&lt;br&gt;[Software System]&lt;br&gt;&lt;/span&gt;" style="html=1;whiteSpace=wrap;" parent="1" vertex="1">
          <mxGeometry x="920" y="531" width="260" height="69" as="geometry" />
        </mxCell>
        <mxCell id="pfnRBpDnnf5gN-3sMGlf-73" style="edgeStyle=none;rounded=0;html=1;dashed=1;labelBackgroundColor=none;startArrow=none;startFill=0;startSize=8;endArrow=open;endFill=0;endSize=16;fontFamily=Verdana;fontSize=12;entryX=0.773;entryY=-0.037;entryDx=0;entryDy=0;entryPerimeter=0;exitX=0.5;exitY=0.5;exitDx=0;exitDy=0;exitPerimeter=0;" parent="1" edge="1">
          <mxGeometry relative="1" as="geometry">
            <mxPoint x="720" y="-5.5" as="sourcePoint" />
            <mxPoint x="285" y="610" as="targetPoint" />
            <Array as="points">
              <mxPoint x="680" y="-5" />
              <mxPoint x="680" y="547" />
              <mxPoint x="500" y="547" />
              <mxPoint x="285" y="547" />
            </Array>
          </mxGeometry>
        </mxCell>
        <mxCell id="pfnRBpDnnf5gN-3sMGlf-74" value="updates all the&lt;br&gt;&amp;nbsp;corresponding&lt;br&gt;&amp;nbsp;details related to&lt;br&gt;&amp;nbsp;the Customer following &lt;br&gt;a successful transaction." style="edgeLabel;html=1;align=center;verticalAlign=middle;resizable=0;points=[];" parent="pfnRBpDnnf5gN-3sMGlf-73" vertex="1" connectable="0">
          <mxGeometry x="0.1117" relative="1" as="geometry">
            <mxPoint x="-110" y="12" as="offset" />
          </mxGeometry>
        </mxCell>
        <mxCell id="pfnRBpDnnf5gN-3sMGlf-75" value="&lt;span style=&quot;box-sizing: border-box; margin: 0px; padding: 0px; border: 0px; vertical-align: baseline; color: rgb(39, 50, 57); font-family: Nunito, sans-serif; letter-spacing: 0.162px; text-align: justify; background-color: rgb(255, 255, 255);&quot;&gt;&lt;font style=&quot;font-size: 10px;&quot;&gt;Account Management System&lt;/font&gt;&lt;/span&gt;&lt;span style=&quot;box-sizing: border-box; margin: 0px; padding: 0px; border: 0px; vertical-align: baseline; color: rgb(39, 50, 57); font-family: Nunito, sans-serif; letter-spacing: 0.162px; text-align: justify; background-color: rgb(255, 255, 255);&quot;&gt;&lt;b style=&quot;font-size: 17px;&quot;&gt;&amp;nbsp;&lt;/b&gt;&lt;br&gt;&lt;font style=&quot;font-size: 8px;&quot;&gt;[Software System]&lt;/font&gt;&lt;br&gt;&lt;/span&gt;" style="html=1;whiteSpace=wrap;" parent="1" vertex="1">
          <mxGeometry x="370" y="740" width="110" height="70" as="geometry" />
        </mxCell>
        <mxCell id="pfnRBpDnnf5gN-3sMGlf-76" style="edgeStyle=none;rounded=0;html=1;dashed=1;labelBackgroundColor=none;startArrow=none;startFill=0;startSize=8;endArrow=open;endFill=0;endSize=16;fontFamily=Verdana;fontSize=12;entryX=0.598;entryY=-0.041;entryDx=0;entryDy=0;entryPerimeter=0;exitX=1;exitY=1;exitDx=0;exitDy=0;" parent="1" edge="1" source="pfnRBpDnnf5gN-3sMGlf-15">
          <mxGeometry relative="1" as="geometry">
            <mxPoint x="420.29999999999995" y="430" as="sourcePoint" />
            <mxPoint x="419.9999999999998" y="745.1300000000001" as="targetPoint" />
            <Array as="points">
              <mxPoint x="470" y="560" />
            </Array>
          </mxGeometry>
        </mxCell>
        <mxCell id="pfnRBpDnnf5gN-3sMGlf-77" value="accessing &lt;br&gt;his details" style="edgeLabel;html=1;align=center;verticalAlign=middle;resizable=0;points=[];" parent="pfnRBpDnnf5gN-3sMGlf-76" vertex="1" connectable="0">
          <mxGeometry x="0.2854" y="-2" relative="1" as="geometry">
            <mxPoint y="-1" as="offset" />
          </mxGeometry>
        </mxCell>
        <mxCell id="pfnRBpDnnf5gN-3sMGlf-79" style="edgeStyle=none;rounded=0;html=1;dashed=1;labelBackgroundColor=none;startArrow=none;startFill=0;startSize=8;endArrow=open;endFill=0;endSize=16;fontFamily=Verdana;fontSize=12;exitX=0.634;exitY=1.014;exitDx=0;exitDy=0;exitPerimeter=0;" parent="1" source="pfnRBpDnnf5gN-3sMGlf-75" edge="1">
          <mxGeometry relative="1" as="geometry">
            <mxPoint x="430.29999999999995" y="810" as="sourcePoint" />
            <mxPoint x="320" y="710" as="targetPoint" />
            <Array as="points">
              <mxPoint x="440" y="880" />
              <mxPoint x="320" y="880" />
            </Array>
          </mxGeometry>
        </mxCell>
        <mxCell id="pfnRBpDnnf5gN-3sMGlf-80" value="datra required&amp;nbsp;&lt;br&gt;for transaction" style="edgeLabel;html=1;align=center;verticalAlign=middle;resizable=0;points=[];" parent="pfnRBpDnnf5gN-3sMGlf-79" vertex="1" connectable="0">
          <mxGeometry x="0.3199" y="3" relative="1" as="geometry">
            <mxPoint as="offset" />
          </mxGeometry>
        </mxCell>
        <mxCell id="pfnRBpDnnf5gN-3sMGlf-81" style="edgeStyle=none;rounded=0;html=1;dashed=1;labelBackgroundColor=none;startArrow=none;startFill=0;startSize=8;endArrow=open;endFill=0;endSize=16;fontFamily=Verdana;fontSize=12;" parent="1" edge="1">
          <mxGeometry relative="1" as="geometry">
            <mxPoint x="450" y="810" as="sourcePoint" />
            <mxPoint x="800" y="580" as="targetPoint" />
            <Array as="points">
              <mxPoint x="450" y="870" />
              <mxPoint x="800" y="870" />
            </Array>
          </mxGeometry>
        </mxCell>
        <mxCell id="pfnRBpDnnf5gN-3sMGlf-82" value="data required&amp;nbsp;&lt;br&gt;for loan" style="edgeLabel;html=1;align=center;verticalAlign=middle;resizable=0;points=[];" parent="pfnRBpDnnf5gN-3sMGlf-81" vertex="1" connectable="0">
          <mxGeometry x="0.3199" y="3" relative="1" as="geometry">
            <mxPoint as="offset" />
          </mxGeometry>
        </mxCell>
        <mxCell id="pfnRBpDnnf5gN-3sMGlf-86" style="edgeStyle=none;rounded=0;html=1;dashed=1;labelBackgroundColor=none;startArrow=none;startFill=0;startSize=8;endArrow=open;endFill=0;endSize=16;fontFamily=Verdana;fontSize=12;" parent="1" edge="1">
          <mxGeometry relative="1" as="geometry">
            <mxPoint x="620" y="220" as="sourcePoint" />
            <mxPoint x="130" y="530" as="targetPoint" />
            <Array as="points">
              <mxPoint x="620" y="480" />
              <mxPoint x="130" y="480" />
            </Array>
          </mxGeometry>
        </mxCell>
        <mxCell id="pfnRBpDnnf5gN-3sMGlf-171" value="uses" style="edgeLabel;html=1;align=center;verticalAlign=middle;resizable=0;points=[];" parent="pfnRBpDnnf5gN-3sMGlf-86" vertex="1" connectable="0">
          <mxGeometry x="-0.705" relative="1" as="geometry">
            <mxPoint as="offset" />
          </mxGeometry>
        </mxCell>
        <mxCell id="pfnRBpDnnf5gN-3sMGlf-90" value="«component»&lt;br&gt;Admin" style="html=1;dropTarget=0;whiteSpace=wrap;" parent="1" vertex="1">
          <mxGeometry x="-310" y="170" width="170" height="70" as="geometry" />
        </mxCell>
        <mxCell id="pfnRBpDnnf5gN-3sMGlf-91" value="" style="shape=module;jettyWidth=8;jettyHeight=4;" parent="pfnRBpDnnf5gN-3sMGlf-90" vertex="1">
          <mxGeometry x="1" width="20" height="20" relative="1" as="geometry">
            <mxPoint x="-27" y="7" as="offset" />
          </mxGeometry>
        </mxCell>
        <mxCell id="pfnRBpDnnf5gN-3sMGlf-96" style="edgeStyle=none;rounded=0;html=1;dashed=1;labelBackgroundColor=none;startArrow=none;startFill=0;startSize=8;endArrow=open;endFill=0;endSize=16;fontFamily=Verdana;fontSize=12;entryX=0;entryY=0;entryDx=0;entryDy=27.5;entryPerimeter=0;" parent="1" edge="1">
          <mxGeometry relative="1" as="geometry">
            <mxPoint x="-240" y="240" as="sourcePoint" />
            <mxPoint x="105" y="558.5" as="targetPoint" />
            <Array as="points">
              <mxPoint x="-240" y="559" />
            </Array>
          </mxGeometry>
        </mxCell>
        <mxCell id="pfnRBpDnnf5gN-3sMGlf-97" value="modify&amp;nbsp;&lt;br&gt;can block customer&lt;br&gt;" style="edgeLabel;html=1;align=center;verticalAlign=middle;resizable=0;points=[];" parent="pfnRBpDnnf5gN-3sMGlf-96" vertex="1" connectable="0">
          <mxGeometry x="0.5626" y="6" relative="1" as="geometry">
            <mxPoint as="offset" />
          </mxGeometry>
        </mxCell>
        <mxCell id="pfnRBpDnnf5gN-3sMGlf-102" value="«component»&lt;br&gt;Notification" style="html=1;dropTarget=0;whiteSpace=wrap;" parent="1" vertex="1">
          <mxGeometry x="-360" y="630" width="270" height="90" as="geometry" />
        </mxCell>
        <mxCell id="pfnRBpDnnf5gN-3sMGlf-103" value="" style="shape=module;jettyWidth=8;jettyHeight=4;" parent="pfnRBpDnnf5gN-3sMGlf-102" vertex="1">
          <mxGeometry x="1" width="20" height="20" relative="1" as="geometry">
            <mxPoint x="-27" y="7" as="offset" />
          </mxGeometry>
        </mxCell>
        <mxCell id="pfnRBpDnnf5gN-3sMGlf-104" value="Database" style="shape=datastore;whiteSpace=wrap;html=1;" parent="1" vertex="1">
          <mxGeometry x="110" y="531" width="110" height="99" as="geometry" />
        </mxCell>
        <mxCell id="pfnRBpDnnf5gN-3sMGlf-105" style="edgeStyle=none;rounded=0;html=1;dashed=1;labelBackgroundColor=none;startArrow=none;startFill=0;startSize=8;endArrow=open;endFill=0;endSize=16;fontFamily=Verdana;fontSize=12;entryX=0.592;entryY=-0.049;entryDx=0;entryDy=0;entryPerimeter=0;exitX=0;exitY=0.25;exitDx=0;exitDy=0;" parent="1" source="pfnRBpDnnf5gN-3sMGlf-17" target="pfnRBpDnnf5gN-3sMGlf-102" edge="1">
          <mxGeometry relative="1" as="geometry">
            <mxPoint x="-39.700000000000045" y="294.87" as="sourcePoint" />
            <mxPoint x="-40.00000000000023" y="610.0000000000001" as="targetPoint" />
            <Array as="points">
              <mxPoint x="-202" y="378" />
              <mxPoint x="-200" y="480" />
            </Array>
          </mxGeometry>
        </mxCell>
        <mxCell id="pfnRBpDnnf5gN-3sMGlf-107" style="edgeStyle=none;rounded=0;html=1;dashed=1;labelBackgroundColor=none;startArrow=none;startFill=0;startSize=8;endArrow=open;endFill=0;endSize=16;fontFamily=Verdana;fontSize=12;exitX=0.672;exitY=1.011;exitDx=0;exitDy=0;exitPerimeter=0;" parent="1" source="pfnRBpDnnf5gN-3sMGlf-102" target="pfnRBpDnnf5gN-3sMGlf-108" edge="1">
          <mxGeometry relative="1" as="geometry">
            <mxPoint x="382" y="829" as="sourcePoint" />
            <mxPoint x="-180" y="950" as="targetPoint" />
            <Array as="points">
              <mxPoint x="-180" y="829" />
            </Array>
          </mxGeometry>
        </mxCell>
        <mxCell id="pfnRBpDnnf5gN-3sMGlf-169" value="uses" style="edgeLabel;html=1;align=center;verticalAlign=middle;resizable=0;points=[];" parent="pfnRBpDnnf5gN-3sMGlf-107" vertex="1" connectable="0">
          <mxGeometry x="-0.2835" y="3" relative="1" as="geometry">
            <mxPoint y="1" as="offset" />
          </mxGeometry>
        </mxCell>
        <mxCell id="pfnRBpDnnf5gN-3sMGlf-108" value="E-mail System&lt;br&gt;[Software System]" style="html=1;whiteSpace=wrap;" parent="1" vertex="1">
          <mxGeometry x="-235" y="880" width="110" height="50" as="geometry" />
        </mxCell>
        <mxCell id="pfnRBpDnnf5gN-3sMGlf-109" style="edgeStyle=none;rounded=0;html=1;dashed=1;labelBackgroundColor=none;startArrow=none;startFill=0;startSize=8;endArrow=open;endFill=0;endSize=16;fontFamily=Verdana;fontSize=12;exitX=0.5;exitY=1;exitDx=0;exitDy=0;" parent="1" source="pfnRBpDnnf5gN-3sMGlf-108" edge="1">
          <mxGeometry relative="1" as="geometry">
            <mxPoint x="15" y="1040" as="sourcePoint" />
            <mxPoint x="1040" y="600" as="targetPoint" />
            <Array as="points">
              <mxPoint x="-180" y="1050" />
              <mxPoint x="-180" y="1110" />
              <mxPoint x="1040" y="1110" />
            </Array>
          </mxGeometry>
        </mxCell>
        <mxCell id="pfnRBpDnnf5gN-3sMGlf-114" style="edgeStyle=none;rounded=0;html=1;dashed=1;labelBackgroundColor=none;startArrow=none;startFill=0;startSize=8;endArrow=open;endFill=0;endSize=16;fontFamily=Verdana;fontSize=12;entryX=0.335;entryY=-0.032;entryDx=0;entryDy=0;entryPerimeter=0;" parent="1" target="pfnRBpDnnf5gN-3sMGlf-102" edge="1">
          <mxGeometry relative="1" as="geometry">
            <mxPoint x="-269.5" y="239.5" as="sourcePoint" />
            <mxPoint x="-269.5" y="550.5" as="targetPoint" />
            <Array as="points">
              <mxPoint x="-270" y="299.5" />
            </Array>
          </mxGeometry>
        </mxCell>
        <mxCell id="pfnRBpDnnf5gN-3sMGlf-115" style="edgeStyle=none;rounded=0;html=1;dashed=1;labelBackgroundColor=none;startArrow=none;startFill=0;startSize=8;endArrow=open;endFill=0;endSize=16;fontFamily=Verdana;fontSize=12;entryX=0.074;entryY=0;entryDx=0;entryDy=0;entryPerimeter=0;exitX=0;exitY=0.25;exitDx=0;exitDy=0;" parent="1" source="pfnRBpDnnf5gN-3sMGlf-21" target="pfnRBpDnnf5gN-3sMGlf-102" edge="1">
          <mxGeometry relative="1" as="geometry">
            <mxPoint x="710" y="-30" as="sourcePoint" />
            <mxPoint x="-350" y="630" as="targetPoint" />
            <Array as="points">
              <mxPoint x="400" y="-30" />
              <mxPoint x="-340" y="-30" />
              <mxPoint x="-340" y="300" />
            </Array>
          </mxGeometry>
        </mxCell>
        <mxCell id="pfnRBpDnnf5gN-3sMGlf-117" style="edgeStyle=none;rounded=0;html=1;dashed=1;labelBackgroundColor=none;startArrow=none;startFill=0;startSize=8;endArrow=open;endFill=0;endSize=16;fontFamily=Verdana;fontSize=12;exitX=0;exitY=0.3333333333333333;exitDx=0;exitDy=0;exitPerimeter=0;entryX=0.947;entryY=0.992;entryDx=0;entryDy=0;entryPerimeter=0;" parent="1" edge="1">
          <mxGeometry relative="1" as="geometry">
            <mxPoint x="350" y="401.6666666666665" as="sourcePoint" />
            <mxPoint x="235.6899999999996" y="214.20000000000027" as="targetPoint" />
            <Array as="points">
              <mxPoint x="236" y="402" />
            </Array>
          </mxGeometry>
        </mxCell>
        <mxCell id="pfnRBpDnnf5gN-3sMGlf-121" style="edgeStyle=none;rounded=0;html=1;dashed=1;labelBackgroundColor=none;startArrow=none;startFill=0;startSize=8;endArrow=open;endFill=0;endSize=16;fontFamily=Verdana;fontSize=12;entryX=0;entryY=0.5;entryDx=0;entryDy=0;" parent="1" target="pfnRBpDnnf5gN-3sMGlf-104" edge="1">
          <mxGeometry relative="1" as="geometry">
            <mxPoint x="580" y="120" as="sourcePoint" />
            <mxPoint x="-80" y="610" as="targetPoint" />
            <Array as="points">
              <mxPoint x="580" y="30" />
              <mxPoint x="-80" y="30" />
              <mxPoint x="-80" y="581" />
              <mxPoint x="-60" y="580" />
            </Array>
          </mxGeometry>
        </mxCell>
        <mxCell id="pfnRBpDnnf5gN-3sMGlf-176" value="uses" style="edgeLabel;html=1;align=center;verticalAlign=middle;resizable=0;points=[];" parent="pfnRBpDnnf5gN-3sMGlf-121" vertex="1" connectable="0">
          <mxGeometry x="0.1279" y="-1" relative="1" as="geometry">
            <mxPoint y="1" as="offset" />
          </mxGeometry>
        </mxCell>
        <mxCell id="pfnRBpDnnf5gN-3sMGlf-125" style="edgeStyle=none;rounded=0;html=1;dashed=1;labelBackgroundColor=none;startArrow=none;startFill=0;startSize=8;endArrow=open;endFill=0;endSize=16;fontFamily=Verdana;fontSize=12;entryX=0.638;entryY=0.012;entryDx=0;entryDy=0;entryPerimeter=0;" parent="1" target="pfnRBpDnnf5gN-3sMGlf-70" edge="1">
          <mxGeometry relative="1" as="geometry">
            <mxPoint x="340" y="120" as="sourcePoint" />
            <mxPoint x="1130" y="-80" as="targetPoint" />
            <Array as="points">
              <mxPoint x="340" y="-80" />
              <mxPoint x="720" y="-80" />
              <mxPoint x="1086" y="-80" />
            </Array>
          </mxGeometry>
        </mxCell>
        <mxCell id="pfnRBpDnnf5gN-3sMGlf-173" value="uses" style="edgeLabel;html=1;align=center;verticalAlign=middle;resizable=0;points=[];" parent="pfnRBpDnnf5gN-3sMGlf-125" vertex="1" connectable="0">
          <mxGeometry x="0.5437" y="-2" relative="1" as="geometry">
            <mxPoint as="offset" />
          </mxGeometry>
        </mxCell>
        <mxCell id="pfnRBpDnnf5gN-3sMGlf-126" style="edgeStyle=none;rounded=0;html=1;dashed=1;labelBackgroundColor=none;startArrow=none;startFill=0;startSize=8;endArrow=open;endFill=0;endSize=16;fontFamily=Verdana;fontSize=12;entryX=0.75;entryY=0;entryDx=0;entryDy=0;" parent="1" target="pfnRBpDnnf5gN-3sMGlf-70" edge="1">
          <mxGeometry relative="1" as="geometry">
            <mxPoint x="470" y="119" as="sourcePoint" />
            <mxPoint x="1216" y="531" as="targetPoint" />
            <Array as="points">
              <mxPoint x="470" y="-60" />
              <mxPoint x="1120" y="-60" />
            </Array>
          </mxGeometry>
        </mxCell>
        <mxCell id="pfnRBpDnnf5gN-3sMGlf-174" value="uses" style="edgeLabel;html=1;align=center;verticalAlign=middle;resizable=0;points=[];" parent="pfnRBpDnnf5gN-3sMGlf-126" vertex="1" connectable="0">
          <mxGeometry x="0.5476" y="-1" relative="1" as="geometry">
            <mxPoint y="1" as="offset" />
          </mxGeometry>
        </mxCell>
        <mxCell id="pfnRBpDnnf5gN-3sMGlf-130" value="«component»&lt;br&gt;&lt;b&gt;Reminder&lt;/b&gt;" style="html=1;dropTarget=0;whiteSpace=wrap;" parent="1" vertex="1">
          <mxGeometry x="-720" y="441" width="180" height="90" as="geometry" />
        </mxCell>
        <mxCell id="pfnRBpDnnf5gN-3sMGlf-131" value="" style="shape=module;jettyWidth=8;jettyHeight=4;" parent="pfnRBpDnnf5gN-3sMGlf-130" vertex="1">
          <mxGeometry x="1" width="20" height="20" relative="1" as="geometry">
            <mxPoint x="-27" y="7" as="offset" />
          </mxGeometry>
        </mxCell>
        <mxCell id="pfnRBpDnnf5gN-3sMGlf-132" style="edgeStyle=none;rounded=0;html=1;dashed=1;labelBackgroundColor=none;startArrow=none;startFill=0;startSize=8;endArrow=open;endFill=0;endSize=16;fontFamily=Verdana;fontSize=12;entryX=0.384;entryY=0.022;entryDx=0;entryDy=0;entryPerimeter=0;" parent="1" target="pfnRBpDnnf5gN-3sMGlf-130" edge="1">
          <mxGeometry relative="1" as="geometry">
            <mxPoint x="350" y="420" as="sourcePoint" />
            <mxPoint x="-190" y="636" as="targetPoint" />
            <Array as="points">
              <mxPoint x="80" y="420" />
              <mxPoint x="-651" y="420" />
            </Array>
          </mxGeometry>
        </mxCell>
        <mxCell id="pfnRBpDnnf5gN-3sMGlf-133" style="edgeStyle=none;rounded=0;html=1;dashed=1;labelBackgroundColor=none;startArrow=none;startFill=0;startSize=8;endArrow=open;endFill=0;endSize=16;fontFamily=Verdana;fontSize=12;entryX=0.808;entryY=1.017;entryDx=0;entryDy=0;entryPerimeter=0;exitX=0.429;exitY=1.021;exitDx=0;exitDy=0;exitPerimeter=0;" parent="1" target="pfnRBpDnnf5gN-3sMGlf-70" edge="1" source="pfnRBpDnnf5gN-3sMGlf-130">
          <mxGeometry relative="1" as="geometry">
            <mxPoint x="-640" y="560" as="sourcePoint" />
            <mxPoint x="1130" y="630" as="targetPoint" />
            <Array as="points">
              <mxPoint x="-640" y="1130" />
              <mxPoint x="1130" y="1130" />
            </Array>
          </mxGeometry>
        </mxCell>
        <mxCell id="pfnRBpDnnf5gN-3sMGlf-170" value="uses" style="edgeLabel;html=1;align=center;verticalAlign=middle;resizable=0;points=[];" parent="pfnRBpDnnf5gN-3sMGlf-133" vertex="1" connectable="0">
          <mxGeometry x="-0.8787" y="-4" relative="1" as="geometry">
            <mxPoint as="offset" />
          </mxGeometry>
        </mxCell>
        <mxCell id="pfnRBpDnnf5gN-3sMGlf-136" value="«component»&lt;br&gt;&lt;b&gt;Report&lt;/b&gt;" style="html=1;dropTarget=0;whiteSpace=wrap;" parent="1" vertex="1">
          <mxGeometry x="-720" y="180" width="180" height="90" as="geometry" />
        </mxCell>
        <mxCell id="pfnRBpDnnf5gN-3sMGlf-137" value="" style="shape=module;jettyWidth=8;jettyHeight=4;" parent="pfnRBpDnnf5gN-3sMGlf-136" vertex="1">
          <mxGeometry x="1" width="20" height="20" relative="1" as="geometry">
            <mxPoint x="-27" y="7" as="offset" />
          </mxGeometry>
        </mxCell>
        <mxCell id="pfnRBpDnnf5gN-3sMGlf-138" style="edgeStyle=none;rounded=0;html=1;dashed=1;labelBackgroundColor=none;startArrow=none;startFill=0;startSize=8;endArrow=open;endFill=0;endSize=16;fontFamily=Verdana;fontSize=12;" parent="1" edge="1">
          <mxGeometry relative="1" as="geometry">
            <mxPoint x="350" y="369" as="sourcePoint" />
            <mxPoint x="-651" y="270" as="targetPoint" />
            <Array as="points">
              <mxPoint x="80" y="369" />
              <mxPoint x="-651" y="370" />
              <mxPoint x="-651" y="270" />
            </Array>
          </mxGeometry>
        </mxCell>
        <mxCell id="pfnRBpDnnf5gN-3sMGlf-140" value="report technical issue/resport theft/damage/ loss" style="edgeLabel;html=1;align=center;verticalAlign=middle;resizable=0;points=[];" parent="pfnRBpDnnf5gN-3sMGlf-138" vertex="1" connectable="0">
          <mxGeometry x="0.3902" y="-2" relative="1" as="geometry">
            <mxPoint x="-1" as="offset" />
          </mxGeometry>
        </mxCell>
        <mxCell id="pfnRBpDnnf5gN-3sMGlf-168" value="uses" style="edgeLabel;html=1;align=center;verticalAlign=middle;resizable=0;points=[];" parent="pfnRBpDnnf5gN-3sMGlf-138" vertex="1" connectable="0">
          <mxGeometry x="0.1226" y="9" relative="1" as="geometry">
            <mxPoint as="offset" />
          </mxGeometry>
        </mxCell>
        <mxCell id="pfnRBpDnnf5gN-3sMGlf-141" value="yses" style="edgeStyle=none;rounded=0;html=1;dashed=1;labelBackgroundColor=none;startArrow=none;startFill=0;startSize=8;endArrow=open;endFill=0;endSize=16;fontFamily=Verdana;fontSize=12;entryX=0.5;entryY=0;entryDx=0;entryDy=0;exitX=0.113;exitY=-0.04;exitDx=0;exitDy=0;exitPerimeter=0;" parent="1" target="pfnRBpDnnf5gN-3sMGlf-21" edge="1" source="pfnRBpDnnf5gN-3sMGlf-136">
          <mxGeometry relative="1" as="geometry">
            <mxPoint x="-700" y="170" as="sourcePoint" />
            <mxPoint x="830" y="-240" as="targetPoint" />
            <Array as="points">
              <mxPoint x="-700" y="100" />
              <mxPoint x="-700" y="-140" />
              <mxPoint x="50" y="-140" />
              <mxPoint x="770" y="-140" />
            </Array>
          </mxGeometry>
        </mxCell>
        <mxCell id="pfnRBpDnnf5gN-3sMGlf-147" style="edgeStyle=none;rounded=0;html=1;dashed=1;labelBackgroundColor=none;startArrow=none;startFill=0;startSize=8;endArrow=open;endFill=0;endSize=16;fontFamily=Verdana;fontSize=12;entryX=0;entryY=0.5;entryDx=0;entryDy=0;" parent="1" edge="1">
          <mxGeometry relative="1" as="geometry">
            <mxPoint x="590" y="130" as="sourcePoint" />
            <mxPoint x="120" y="591" as="targetPoint" />
            <Array as="points">
              <mxPoint x="590" y="40" />
              <mxPoint x="-70" y="40" />
              <mxPoint x="-70" y="591" />
              <mxPoint x="-50" y="590" />
            </Array>
          </mxGeometry>
        </mxCell>
        <mxCell id="pfnRBpDnnf5gN-3sMGlf-177" value="uses" style="edgeLabel;html=1;align=center;verticalAlign=middle;resizable=0;points=[];" parent="pfnRBpDnnf5gN-3sMGlf-147" vertex="1" connectable="0">
          <mxGeometry x="-0.1254" y="1" relative="1" as="geometry">
            <mxPoint x="-1" as="offset" />
          </mxGeometry>
        </mxCell>
        <mxCell id="pfnRBpDnnf5gN-3sMGlf-148" style="edgeStyle=none;rounded=0;html=1;dashed=1;labelBackgroundColor=none;startArrow=none;startFill=0;startSize=8;endArrow=open;endFill=0;endSize=16;fontFamily=Verdana;fontSize=12;entryX=0.135;entryY=0.957;entryDx=0;entryDy=0;entryPerimeter=0;" parent="1" target="pfnRBpDnnf5gN-3sMGlf-70" edge="1">
          <mxGeometry relative="1" as="geometry">
            <mxPoint x="440" y="430" as="sourcePoint" />
            <mxPoint x="1000" y="640" as="targetPoint" />
            <Array as="points">
              <mxPoint x="440" y="670" />
              <mxPoint x="955" y="670" />
            </Array>
          </mxGeometry>
        </mxCell>
        <mxCell id="pfnRBpDnnf5gN-3sMGlf-149" value="fetch detailed&amp;nbsp;&lt;br&gt;info about data" style="edgeLabel;html=1;align=center;verticalAlign=middle;resizable=0;points=[];" parent="pfnRBpDnnf5gN-3sMGlf-148" vertex="1" connectable="0">
          <mxGeometry x="0.4613" y="1" relative="1" as="geometry">
            <mxPoint x="-5" y="-29" as="offset" />
          </mxGeometry>
        </mxCell>
        <mxCell id="pfnRBpDnnf5gN-3sMGlf-150" value="explore&amp;nbsp;" style="edgeLabel;html=1;align=center;verticalAlign=middle;resizable=0;points=[];" parent="pfnRBpDnnf5gN-3sMGlf-148" vertex="1" connectable="0">
          <mxGeometry x="0.0201" y="1" relative="1" as="geometry">
            <mxPoint y="1" as="offset" />
          </mxGeometry>
        </mxCell>
        <mxCell id="pfnRBpDnnf5gN-3sMGlf-162" value="/set reminders" style="edgeLabel;html=1;align=center;verticalAlign=middle;resizable=0;points=[];" parent="pfnRBpDnnf5gN-3sMGlf-148" vertex="1" connectable="0">
          <mxGeometry x="0.0773" y="-6" relative="1" as="geometry">
            <mxPoint x="34" y="-6" as="offset" />
          </mxGeometry>
        </mxCell>
        <mxCell id="pfnRBpDnnf5gN-3sMGlf-156" style="edgeStyle=none;rounded=0;html=1;dashed=1;labelBackgroundColor=none;startArrow=none;startFill=0;startSize=8;endArrow=open;endFill=0;endSize=16;fontFamily=Verdana;fontSize=12;" parent="1" edge="1">
          <mxGeometry relative="1" as="geometry">
            <mxPoint x="480" y="220" as="sourcePoint" />
            <mxPoint x="330" y="610" as="targetPoint" />
            <Array as="points">
              <mxPoint x="480" y="300" />
              <mxPoint x="440" y="300" />
              <mxPoint x="380" y="300" />
              <mxPoint x="330" y="340" />
            </Array>
          </mxGeometry>
        </mxCell>
        <mxCell id="pfnRBpDnnf5gN-3sMGlf-158" value="view &lt;br&gt;transaction&lt;br&gt;&amp;nbsp;history&amp;nbsp;" style="edgeLabel;html=1;align=center;verticalAlign=middle;resizable=0;points=[];" parent="pfnRBpDnnf5gN-3sMGlf-156" vertex="1" connectable="0">
          <mxGeometry x="-0.2166" relative="1" as="geometry">
            <mxPoint x="167" y="-44" as="offset" />
          </mxGeometry>
        </mxCell>
        <mxCell id="pfnRBpDnnf5gN-3sMGlf-163" style="edgeStyle=none;rounded=0;html=1;dashed=1;labelBackgroundColor=none;startArrow=none;startFill=0;startSize=8;endArrow=open;endFill=0;endSize=16;fontFamily=Verdana;fontSize=12;exitX=0;exitY=0;exitDx=0;exitDy=0;entryX=0.081;entryY=1.039;entryDx=0;entryDy=0;entryPerimeter=0;" parent="1" source="pfnRBpDnnf5gN-3sMGlf-11" edge="1" target="pfnRBpDnnf5gN-3sMGlf-130">
          <mxGeometry relative="1" as="geometry">
            <mxPoint x="431" y="-350" as="sourcePoint" />
            <mxPoint x="-770" y="600" as="targetPoint" />
            <Array as="points">
              <mxPoint x="120" y="-190" />
              <mxPoint x="-750" y="-200" />
              <mxPoint x="-760" y="530" />
              <mxPoint x="-760" y="570" />
            </Array>
          </mxGeometry>
        </mxCell>
        <mxCell id="pfnRBpDnnf5gN-3sMGlf-179" value="yses" style="edgeLabel;html=1;align=center;verticalAlign=middle;resizable=0;points=[];" parent="pfnRBpDnnf5gN-3sMGlf-163" vertex="1" connectable="0">
          <mxGeometry x="-0.111" y="-7" relative="1" as="geometry">
            <mxPoint x="-1" as="offset" />
          </mxGeometry>
        </mxCell>
        <mxCell id="pfnRBpDnnf5gN-3sMGlf-164" style="edgeStyle=none;rounded=0;html=1;dashed=1;labelBackgroundColor=none;startArrow=none;startFill=0;startSize=8;endArrow=open;endFill=0;endSize=16;fontFamily=Verdana;fontSize=12;entryX=0.922;entryY=-0.022;entryDx=0;entryDy=0;entryPerimeter=0;exitX=0.25;exitY=0;exitDx=0;exitDy=0;" parent="1" source="pfnRBpDnnf5gN-3sMGlf-13" target="pfnRBpDnnf5gN-3sMGlf-130" edge="1">
          <mxGeometry relative="1" as="geometry">
            <mxPoint x="560" y="50" as="sourcePoint" />
            <mxPoint x="-490" y="800" as="targetPoint" />
            <Array as="points">
              <mxPoint x="540" />
              <mxPoint x="-480" y="-30" />
              <mxPoint x="-480" y="410" />
            </Array>
          </mxGeometry>
        </mxCell>
        <mxCell id="pfnRBpDnnf5gN-3sMGlf-165" style="edgeStyle=none;rounded=0;html=1;dashed=1;labelBackgroundColor=none;startArrow=none;startFill=0;startSize=8;endArrow=open;endFill=0;endSize=16;fontFamily=Verdana;fontSize=12;exitX=0.25;exitY=0;exitDx=0;exitDy=0;entryX=0.25;entryY=0;entryDx=0;entryDy=0;" parent="1" edge="1" target="pfnRBpDnnf5gN-3sMGlf-68">
          <mxGeometry relative="1" as="geometry">
            <mxPoint x="573" y="130" as="sourcePoint" />
            <mxPoint x="270" y="600" as="targetPoint" />
            <Array as="points">
              <mxPoint x="570" y="-190" />
              <mxPoint x="260" y="-190" />
            </Array>
          </mxGeometry>
        </mxCell>
        <mxCell id="pfnRBpDnnf5gN-3sMGlf-175" value="uses" style="edgeLabel;html=1;align=center;verticalAlign=middle;resizable=0;points=[];" parent="pfnRBpDnnf5gN-3sMGlf-165" vertex="1" connectable="0">
          <mxGeometry x="0.2344" y="-2" relative="1" as="geometry">
            <mxPoint y="1" as="offset" />
          </mxGeometry>
        </mxCell>
        <mxCell id="pfnRBpDnnf5gN-3sMGlf-182" style="edgeStyle=none;rounded=0;html=1;dashed=1;labelBackgroundColor=none;startArrow=none;startFill=0;startSize=8;endArrow=open;endFill=0;endSize=16;fontFamily=Verdana;fontSize=12;entryX=0.018;entryY=0.152;entryDx=0;entryDy=0;entryPerimeter=0;exitX=1;exitY=0.75;exitDx=0;exitDy=0;" parent="1" source="pfnRBpDnnf5gN-3sMGlf-21" target="pfnRBpDnnf5gN-3sMGlf-104" edge="1">
          <mxGeometry relative="1" as="geometry">
            <mxPoint x="820" y="-20" as="sourcePoint" />
            <mxPoint x="-470" y="359.5" as="targetPoint" />
            <Array as="points">
              <mxPoint x="850" y="-2" />
              <mxPoint x="860" y="470" />
              <mxPoint x="100" y="460" />
              <mxPoint x="100" y="520" />
            </Array>
          </mxGeometry>
        </mxCell>
        <mxCell id="pfnRBpDnnf5gN-3sMGlf-183" value="yses" style="edgeLabel;html=1;align=center;verticalAlign=middle;resizable=0;points=[];" parent="pfnRBpDnnf5gN-3sMGlf-182" vertex="1" connectable="0">
          <mxGeometry x="-0.111" y="-7" relative="1" as="geometry">
            <mxPoint x="-1" as="offset" />
          </mxGeometry>
        </mxCell>
        <mxCell id="pfnRBpDnnf5gN-3sMGlf-184" value="uses" style="edgeLabel;html=1;align=center;verticalAlign=middle;resizable=0;points=[];" parent="pfnRBpDnnf5gN-3sMGlf-182" vertex="1" connectable="0">
          <mxGeometry x="0.7059" y="-1" relative="1" as="geometry">
            <mxPoint as="offset" />
          </mxGeometry>
        </mxCell>
        <mxCell id="G3_qzVA7HdIP1M4iXMD2-3" style="edgeStyle=none;rounded=0;html=1;dashed=1;labelBackgroundColor=none;startArrow=none;startFill=0;startSize=8;endArrow=open;endFill=0;endSize=16;fontFamily=Verdana;fontSize=12;" parent="1" edge="1">
          <mxGeometry relative="1" as="geometry">
            <mxPoint x="540" y="210" as="sourcePoint" />
            <mxPoint x="300" y="610" as="targetPoint" />
            <Array as="points">
              <mxPoint x="540" y="320" />
              <mxPoint x="300" y="320" />
            </Array>
          </mxGeometry>
        </mxCell>
        <mxCell id="G3_qzVA7HdIP1M4iXMD2-4" value="view &lt;br&gt;transaction&lt;br&gt;&amp;nbsp;history&amp;nbsp;" style="edgeLabel;html=1;align=center;verticalAlign=middle;resizable=0;points=[];" parent="G3_qzVA7HdIP1M4iXMD2-3" vertex="1" connectable="0">
          <mxGeometry x="-0.2166" relative="1" as="geometry">
            <mxPoint x="-69" y="195" as="offset" />
          </mxGeometry>
        </mxCell>
        <mxCell id="G3_qzVA7HdIP1M4iXMD2-11" style="edgeStyle=none;rounded=0;html=1;dashed=1;labelBackgroundColor=none;startArrow=none;startFill=0;startSize=8;endArrow=open;endFill=0;endSize=16;fontFamily=Verdana;fontSize=12;entryX=1;entryY=0.25;entryDx=0;entryDy=0;" parent="1" target="pfnRBpDnnf5gN-3sMGlf-75" edge="1">
          <mxGeometry relative="1" as="geometry">
            <mxPoint x="480" y="129" as="sourcePoint" />
            <mxPoint x="1240" y="930" as="targetPoint" />
            <Array as="points">
              <mxPoint x="480" y="-50" />
              <mxPoint x="1240" y="-50" />
              <mxPoint x="1240" y="758" />
              <mxPoint x="710" y="760" />
            </Array>
          </mxGeometry>
        </mxCell>
        <mxCell id="G3_qzVA7HdIP1M4iXMD2-12" value="uses" style="edgeLabel;html=1;align=center;verticalAlign=middle;resizable=0;points=[];" parent="G3_qzVA7HdIP1M4iXMD2-11" vertex="1" connectable="0">
          <mxGeometry x="0.5476" y="-1" relative="1" as="geometry">
            <mxPoint y="1" as="offset" />
          </mxGeometry>
        </mxCell>
        <mxCell id="G3_qzVA7HdIP1M4iXMD2-13" style="edgeStyle=none;rounded=0;html=1;dashed=1;labelBackgroundColor=none;startArrow=none;startFill=0;startSize=8;endArrow=open;endFill=0;endSize=16;fontFamily=Verdana;fontSize=12;entryX=0.25;entryY=1;entryDx=0;entryDy=0;" parent="1" target="pfnRBpDnnf5gN-3sMGlf-75" edge="1">
          <mxGeometry relative="1" as="geometry">
            <mxPoint x="760" y="529" as="sourcePoint" />
            <mxPoint x="410" y="1010" as="targetPoint" />
            <Array as="points">
              <mxPoint x="760" y="350" />
              <mxPoint x="1280" y="350" />
              <mxPoint x="1290" y="1010" />
              <mxPoint x="398" y="1010" />
            </Array>
          </mxGeometry>
        </mxCell>
        <mxCell id="G3_qzVA7HdIP1M4iXMD2-14" value="banker want to know if client have an account" style="edgeLabel;html=1;align=center;verticalAlign=middle;resizable=0;points=[];" parent="G3_qzVA7HdIP1M4iXMD2-13" vertex="1" connectable="0">
          <mxGeometry x="0.5476" y="-1" relative="1" as="geometry">
            <mxPoint y="1" as="offset" />
          </mxGeometry>
        </mxCell>
        <mxCell id="G3_qzVA7HdIP1M4iXMD2-19" style="edgeStyle=none;rounded=0;html=1;dashed=1;labelBackgroundColor=none;startArrow=none;startFill=0;startSize=8;endArrow=open;endFill=0;endSize=16;fontFamily=Verdana;fontSize=12;exitX=0.634;exitY=1.014;exitDx=0;exitDy=0;exitPerimeter=0;entryX=0.401;entryY=0.982;entryDx=0;entryDy=0;entryPerimeter=0;" parent="1" target="pfnRBpDnnf5gN-3sMGlf-104" edge="1">
          <mxGeometry relative="1" as="geometry">
            <mxPoint x="770" y="581.5" as="sourcePoint" />
            <mxPoint x="150" y="620" as="targetPoint" />
            <Array as="points">
              <mxPoint x="770" y="650.5" />
              <mxPoint x="670" y="650" />
              <mxPoint x="680" y="1080" />
              <mxPoint x="160" y="1080" />
            </Array>
          </mxGeometry>
        </mxCell>
        <mxCell id="G3_qzVA7HdIP1M4iXMD2-20" value="client details" style="edgeLabel;html=1;align=center;verticalAlign=middle;resizable=0;points=[];" parent="G3_qzVA7HdIP1M4iXMD2-19" vertex="1" connectable="0">
          <mxGeometry x="0.3199" y="3" relative="1" as="geometry">
            <mxPoint as="offset" />
          </mxGeometry>
        </mxCell>
        <mxCell id="G3_qzVA7HdIP1M4iXMD2-21" style="edgeStyle=none;rounded=0;html=1;dashed=1;labelBackgroundColor=none;startArrow=none;startFill=0;startSize=8;endArrow=open;endFill=0;endSize=16;fontFamily=Verdana;fontSize=12;entryX=0.935;entryY=0.012;entryDx=0;entryDy=0;entryPerimeter=0;" parent="1" target="pfnRBpDnnf5gN-3sMGlf-70" edge="1">
          <mxGeometry relative="1" as="geometry">
            <mxPoint x="740" y="-41" as="sourcePoint" />
            <mxPoint x="1385" y="371" as="targetPoint" />
            <Array as="points">
              <mxPoint x="740" y="-220" />
              <mxPoint x="1160" y="-220" />
            </Array>
          </mxGeometry>
        </mxCell>
        <mxCell id="G3_qzVA7HdIP1M4iXMD2-22" value="uses" style="edgeLabel;html=1;align=center;verticalAlign=middle;resizable=0;points=[];" parent="G3_qzVA7HdIP1M4iXMD2-21" vertex="1" connectable="0">
          <mxGeometry x="0.5476" y="-1" relative="1" as="geometry">
            <mxPoint y="1" as="offset" />
          </mxGeometry>
        </mxCell>
        <mxCell id="G3_qzVA7HdIP1M4iXMD2-25" style="edgeStyle=none;rounded=0;html=1;dashed=1;labelBackgroundColor=none;startArrow=none;startFill=0;startSize=8;endArrow=open;endFill=0;endSize=16;fontFamily=Verdana;fontSize=12;exitX=1;exitY=0.5;exitDx=0;exitDy=0;entryX=0.946;entryY=1.013;entryDx=0;entryDy=0;entryPerimeter=0;" parent="1" source="pfnRBpDnnf5gN-3sMGlf-136" target="pfnRBpDnnf5gN-3sMGlf-70" edge="1">
          <mxGeometry relative="1" as="geometry">
            <mxPoint x="-495" y="280" as="sourcePoint" />
            <mxPoint x="1260" y="880" as="targetPoint" />
            <Array as="points">
              <mxPoint x="-495" y="400" />
              <mxPoint x="-495" y="460" />
              <mxPoint x="-500" y="1120" />
              <mxPoint x="1170" y="1120" />
            </Array>
          </mxGeometry>
        </mxCell>
        <mxCell id="G3_qzVA7HdIP1M4iXMD2-26" style="edgeStyle=none;rounded=0;html=1;dashed=1;labelBackgroundColor=none;startArrow=none;startFill=0;startSize=8;endArrow=open;endFill=0;endSize=16;fontFamily=Verdana;fontSize=12;entryX=0.5;entryY=0;entryDx=0;entryDy=0;" parent="1" target="pfnRBpDnnf5gN-3sMGlf-70" edge="1">
          <mxGeometry relative="1" as="geometry">
            <mxPoint x="-240" y="170" as="sourcePoint" />
            <mxPoint x="1050" y="150" as="targetPoint" />
            <Array as="points">
              <mxPoint x="-240" y="110" />
              <mxPoint x="-240" y="-290" />
              <mxPoint x="1020" y="-300" />
            </Array>
          </mxGeometry>
        </mxCell>
        <mxCell id="G3_qzVA7HdIP1M4iXMD2-27" value="uses" style="edgeLabel;html=1;align=center;verticalAlign=middle;resizable=0;points=[];" parent="G3_qzVA7HdIP1M4iXMD2-26" vertex="1" connectable="0">
          <mxGeometry x="0.2429" y="-1" relative="1" as="geometry">
            <mxPoint x="-1" as="offset" />
          </mxGeometry>
        </mxCell>
        <mxCell id="G3_qzVA7HdIP1M4iXMD2-32" style="edgeStyle=none;rounded=0;html=1;dashed=1;labelBackgroundColor=none;startArrow=none;startFill=0;startSize=8;endArrow=open;endFill=0;endSize=16;fontFamily=Verdana;fontSize=12;" parent="1" target="pfnRBpDnnf5gN-3sMGlf-70" edge="1">
          <mxGeometry relative="1" as="geometry">
            <mxPoint x="390" y="430" as="sourcePoint" />
            <mxPoint x="950" y="490" as="targetPoint" />
            <Array as="points">
              <mxPoint x="390" y="490" />
              <mxPoint x="740" y="490" />
            </Array>
          </mxGeometry>
        </mxCell>
        <mxCell id="G3_qzVA7HdIP1M4iXMD2-34" value="uses" style="edgeLabel;html=1;align=center;verticalAlign=middle;resizable=0;points=[];" parent="G3_qzVA7HdIP1M4iXMD2-32" vertex="1" connectable="0">
          <mxGeometry x="0.2935" y="-1" relative="1" as="geometry">
            <mxPoint as="offset" />
          </mxGeometry>
        </mxCell>
        <mxCell id="kJ7-zAYFYXH6Av_gGips-4" style="edgeStyle=none;rounded=0;html=1;dashed=1;labelBackgroundColor=none;startArrow=none;startFill=0;startSize=8;endArrow=open;endFill=0;endSize=16;fontFamily=Verdana;fontSize=12;exitX=0.5;exitY=0;exitDx=0;exitDy=0;" edge="1" parent="1" source="pfnRBpDnnf5gN-3sMGlf-90">
          <mxGeometry relative="1" as="geometry">
            <mxPoint x="-220" y="160" as="sourcePoint" />
            <mxPoint x="-631.11" y="189" as="targetPoint" />
            <Array as="points">
              <mxPoint x="-280" y="138" />
              <mxPoint x="-631.11" y="138" />
            </Array>
          </mxGeometry>
        </mxCell>
        <mxCell id="kJ7-zAYFYXH6Av_gGips-5" value="uses" style="edgeLabel;html=1;align=center;verticalAlign=middle;resizable=0;points=[];" vertex="1" connectable="0" parent="kJ7-zAYFYXH6Av_gGips-4">
          <mxGeometry x="-0.2835" y="3" relative="1" as="geometry">
            <mxPoint y="1" as="offset" />
          </mxGeometry>
        </mxCell>
        <mxCell id="kJ7-zAYFYXH6Av_gGips-6" style="edgeStyle=none;rounded=0;html=1;dashed=1;labelBackgroundColor=none;startArrow=none;startFill=0;startSize=8;endArrow=open;endFill=0;endSize=16;fontFamily=Verdana;fontSize=12;" edge="1" parent="1">
          <mxGeometry relative="1" as="geometry">
            <mxPoint x="280.29999999999995" y="210" as="sourcePoint" />
            <mxPoint x="280" y="610" as="targetPoint" />
            <Array as="points">
              <mxPoint x="280.29999999999995" y="261" />
            </Array>
          </mxGeometry>
        </mxCell>
        <mxCell id="kJ7-zAYFYXH6Av_gGips-7" value="uses" style="edgeLabel;html=1;align=center;verticalAlign=middle;resizable=0;points=[];" vertex="1" connectable="0" parent="kJ7-zAYFYXH6Av_gGips-6">
          <mxGeometry x="0.0789" y="4" relative="1" as="geometry">
            <mxPoint as="offset" />
          </mxGeometry>
        </mxCell>
        <mxCell id="kJ7-zAYFYXH6Av_gGips-8" value="«component»&lt;br&gt;&lt;b&gt;Sign In Controller&lt;/b&gt;" style="html=1;dropTarget=0;whiteSpace=wrap;" vertex="1" parent="1">
          <mxGeometry x="75" y="125" width="180" height="85" as="geometry" />
        </mxCell>
        <mxCell id="kJ7-zAYFYXH6Av_gGips-9" value="" style="shape=module;jettyWidth=8;jettyHeight=4;" vertex="1" parent="kJ7-zAYFYXH6Av_gGips-8">
          <mxGeometry x="1" width="20" height="20" relative="1" as="geometry">
            <mxPoint x="-27" y="7" as="offset" />
          </mxGeometry>
        </mxCell>
        <mxCell id="kJ7-zAYFYXH6Av_gGips-10" value="yses" style="edgeStyle=none;rounded=0;html=1;dashed=1;labelBackgroundColor=none;startArrow=none;startFill=0;startSize=8;endArrow=open;endFill=0;endSize=16;fontFamily=Verdana;fontSize=12;exitX=0.113;exitY=-0.04;exitDx=0;exitDy=0;exitPerimeter=0;" edge="1" parent="1">
          <mxGeometry relative="1" as="geometry">
            <mxPoint x="-250" y="170" as="sourcePoint" />
            <mxPoint x="110" y="130" as="targetPoint" />
            <Array as="points">
              <mxPoint x="-250" y="94" />
              <mxPoint x="110" y="94" />
            </Array>
          </mxGeometry>
        </mxCell>
        <mxCell id="kJ7-zAYFYXH6Av_gGips-11" value="yses" style="edgeStyle=none;rounded=0;html=1;dashed=1;labelBackgroundColor=none;startArrow=none;startFill=0;startSize=8;endArrow=open;endFill=0;endSize=16;fontFamily=Verdana;fontSize=12;exitX=0;exitY=0.5;exitDx=0;exitDy=0;entryX=0.383;entryY=0.035;entryDx=0;entryDy=0;entryPerimeter=0;" edge="1" parent="1" source="pfnRBpDnnf5gN-3sMGlf-21" target="kJ7-zAYFYXH6Av_gGips-8">
          <mxGeometry relative="1" as="geometry">
            <mxPoint x="170" y="60" as="sourcePoint" />
            <mxPoint x="150" y="110" as="targetPoint" />
            <Array as="points">
              <mxPoint x="144" y="-10" />
            </Array>
          </mxGeometry>
        </mxCell>
        <mxCell id="kJ7-zAYFYXH6Av_gGips-12" style="edgeStyle=none;rounded=0;html=1;dashed=1;labelBackgroundColor=none;startArrow=none;startFill=0;startSize=8;endArrow=open;endFill=0;endSize=16;fontFamily=Verdana;fontSize=12;" edge="1" parent="1">
          <mxGeometry relative="1" as="geometry">
            <mxPoint x="1090" y="610" as="sourcePoint" />
            <mxPoint x="200" y="630" as="targetPoint" />
            <Array as="points">
              <mxPoint x="1090" y="600" />
              <mxPoint x="1090" y="960" />
              <mxPoint x="200" y="960" />
            </Array>
          </mxGeometry>
        </mxCell>
        <mxCell id="kJ7-zAYFYXH6Av_gGips-13" value="uses" style="edgeLabel;html=1;align=center;verticalAlign=middle;resizable=0;points=[];" vertex="1" connectable="0" parent="kJ7-zAYFYXH6Av_gGips-12">
          <mxGeometry x="0.5476" y="-1" relative="1" as="geometry">
            <mxPoint y="1" as="offset" />
          </mxGeometry>
        </mxCell>
        <mxCell id="kJ7-zAYFYXH6Av_gGips-14" value="«Component»&lt;br&gt;&lt;b&gt;Request&lt;/b&gt;" style="html=1;dropTarget=0;whiteSpace=wrap;" vertex="1" parent="1">
          <mxGeometry x="-1030" y="91" width="180" height="90" as="geometry" />
        </mxCell>
        <mxCell id="kJ7-zAYFYXH6Av_gGips-15" value="" style="shape=module;jettyWidth=8;jettyHeight=4;" vertex="1" parent="kJ7-zAYFYXH6Av_gGips-14">
          <mxGeometry x="1" width="20" height="20" relative="1" as="geometry">
            <mxPoint x="-27" y="7" as="offset" />
          </mxGeometry>
        </mxCell>
        <mxCell id="kJ7-zAYFYXH6Av_gGips-16" style="edgeStyle=none;rounded=0;html=1;dashed=1;labelBackgroundColor=none;startArrow=none;startFill=0;startSize=8;endArrow=open;endFill=0;endSize=16;fontFamily=Verdana;fontSize=12;exitX=0;exitY=0;exitDx=0;exitDy=0;" edge="1" parent="1" source="pfnRBpDnnf5gN-3sMGlf-17">
          <mxGeometry relative="1" as="geometry">
            <mxPoint x="-493.89" y="82" as="sourcePoint" />
            <mxPoint x="-900" y="101" as="targetPoint" />
            <Array as="points">
              <mxPoint x="-70" y="170" />
              <mxPoint x="-548.89" y="50" />
              <mxPoint x="-900" y="50" />
            </Array>
          </mxGeometry>
        </mxCell>
        <mxCell id="kJ7-zAYFYXH6Av_gGips-17" value="uses" style="edgeLabel;html=1;align=center;verticalAlign=middle;resizable=0;points=[];" vertex="1" connectable="0" parent="kJ7-zAYFYXH6Av_gGips-16">
          <mxGeometry x="-0.2835" y="3" relative="1" as="geometry">
            <mxPoint y="1" as="offset" />
          </mxGeometry>
        </mxCell>
        <mxCell id="kJ7-zAYFYXH6Av_gGips-18" style="edgeStyle=none;rounded=0;html=1;dashed=1;labelBackgroundColor=none;startArrow=none;startFill=0;startSize=8;endArrow=open;endFill=0;endSize=16;fontFamily=Verdana;fontSize=12;exitX=0;exitY=0;exitDx=0;exitDy=0;entryX=0.5;entryY=0;entryDx=0;entryDy=0;" edge="1" parent="1" target="kJ7-zAYFYXH6Av_gGips-14">
          <mxGeometry relative="1" as="geometry">
            <mxPoint x="760" y="-40" as="sourcePoint" />
            <mxPoint x="-490" y="-299" as="targetPoint" />
            <Array as="points">
              <mxPoint x="350" y="-220" />
              <mxPoint x="-139" y="-220" />
              <mxPoint x="-500" y="-200" />
            </Array>
          </mxGeometry>
        </mxCell>
        <mxCell id="kJ7-zAYFYXH6Av_gGips-19" value="uses" style="edgeLabel;html=1;align=center;verticalAlign=middle;resizable=0;points=[];" vertex="1" connectable="0" parent="kJ7-zAYFYXH6Av_gGips-18">
          <mxGeometry x="-0.2835" y="3" relative="1" as="geometry">
            <mxPoint y="1" as="offset" />
          </mxGeometry>
        </mxCell>
        <mxCell id="kJ7-zAYFYXH6Av_gGips-20" style="edgeStyle=none;rounded=0;html=1;dashed=1;labelBackgroundColor=none;startArrow=none;startFill=0;startSize=8;endArrow=open;endFill=0;endSize=16;fontFamily=Verdana;fontSize=12;entryX=0;entryY=0.5;entryDx=0;entryDy=0;" edge="1" parent="1" target="pfnRBpDnnf5gN-3sMGlf-17">
          <mxGeometry relative="1" as="geometry">
            <mxPoint x="-970" y="180" as="sourcePoint" />
            <mxPoint x="-870" y="710" as="targetPoint" />
            <Array as="points">
              <mxPoint x="-970" y="300" />
              <mxPoint x="-970" y="410" />
            </Array>
          </mxGeometry>
        </mxCell>
        <mxCell id="kJ7-zAYFYXH6Av_gGips-21" value="yses" style="edgeLabel;html=1;align=center;verticalAlign=middle;resizable=0;points=[];" vertex="1" connectable="0" parent="kJ7-zAYFYXH6Av_gGips-20">
          <mxGeometry x="-0.111" y="-7" relative="1" as="geometry">
            <mxPoint x="-1" as="offset" />
          </mxGeometry>
        </mxCell>
        <mxCell id="kJ7-zAYFYXH6Av_gGips-22" style="edgeStyle=none;rounded=0;html=1;dashed=1;labelBackgroundColor=none;startArrow=none;startFill=0;startSize=8;endArrow=open;endFill=0;endSize=16;fontFamily=Verdana;fontSize=12;exitX=0.75;exitY=1;exitDx=0;exitDy=0;entryX=0.25;entryY=1;entryDx=0;entryDy=0;" edge="1" parent="1" source="kJ7-zAYFYXH6Av_gGips-14" target="pfnRBpDnnf5gN-3sMGlf-70">
          <mxGeometry relative="1" as="geometry">
            <mxPoint x="-780" y="990" as="sourcePoint" />
            <mxPoint x="1010" y="1100" as="targetPoint" />
            <Array as="points">
              <mxPoint x="-895" y="1040" />
              <mxPoint x="990" y="1030" />
            </Array>
          </mxGeometry>
        </mxCell>
        <mxCell id="kJ7-zAYFYXH6Av_gGips-23" value="uses" style="edgeLabel;html=1;align=center;verticalAlign=middle;resizable=0;points=[];" vertex="1" connectable="0" parent="kJ7-zAYFYXH6Av_gGips-22">
          <mxGeometry x="-0.2835" y="3" relative="1" as="geometry">
            <mxPoint y="1" as="offset" />
          </mxGeometry>
        </mxCell>
        <mxCell id="kJ7-zAYFYXH6Av_gGips-25" value="" style="endArrow=none;dashed=1;html=1;rounded=0;fillColor=#f8cecc;strokeColor=#b85450;strokeWidth=6;" edge="1" parent="1">
          <mxGeometry width="50" height="50" relative="1" as="geometry">
            <mxPoint x="-1040" y="550" as="sourcePoint" />
            <mxPoint x="-1040" y="-380" as="targetPoint" />
          </mxGeometry>
        </mxCell>
        <mxCell id="kJ7-zAYFYXH6Av_gGips-26" value="" style="endArrow=none;dashed=1;html=1;rounded=0;fillColor=#f8cecc;strokeColor=#b85450;strokeWidth=6;" edge="1" parent="1">
          <mxGeometry width="50" height="50" relative="1" as="geometry">
            <mxPoint x="-420" y="510" as="sourcePoint" />
            <mxPoint x="1440" y="510" as="targetPoint" />
          </mxGeometry>
        </mxCell>
        <mxCell id="kJ7-zAYFYXH6Av_gGips-27" value="" style="endArrow=none;dashed=1;html=1;rounded=0;fillColor=#f8cecc;strokeColor=#b85450;strokeWidth=6;" edge="1" parent="1">
          <mxGeometry width="50" height="50" relative="1" as="geometry">
            <mxPoint x="1430" y="510" as="sourcePoint" />
            <mxPoint x="1410" y="-370" as="targetPoint" />
            <Array as="points">
              <mxPoint x="1420" y="20" />
            </Array>
          </mxGeometry>
        </mxCell>
        <mxCell id="kJ7-zAYFYXH6Av_gGips-28" value="" style="endArrow=none;dashed=1;html=1;rounded=0;" edge="1" parent="1">
          <mxGeometry width="50" height="50" relative="1" as="geometry">
            <mxPoint x="470" y="180" as="sourcePoint" />
            <mxPoint x="520" y="130" as="targetPoint" />
          </mxGeometry>
        </mxCell>
        <mxCell id="kJ7-zAYFYXH6Av_gGips-29" value="" style="endArrow=none;dashed=1;html=1;rounded=0;fillColor=#f8cecc;strokeColor=#b85450;strokeWidth=6;" edge="1" parent="1">
          <mxGeometry width="50" height="50" relative="1" as="geometry">
            <mxPoint x="-1040" y="-380" as="sourcePoint" />
            <mxPoint x="1410" y="-370" as="targetPoint" />
            <Array as="points">
              <mxPoint x="240" y="-370" />
            </Array>
          </mxGeometry>
        </mxCell>
        <mxCell id="kJ7-zAYFYXH6Av_gGips-30" value="" style="endArrow=none;dashed=1;html=1;rounded=0;fillColor=#f8cecc;strokeColor=#b85450;strokeWidth=6;" edge="1" parent="1">
          <mxGeometry width="50" height="50" relative="1" as="geometry">
            <mxPoint x="-1040" y="550" as="sourcePoint" />
            <mxPoint x="-410" y="550" as="targetPoint" />
          </mxGeometry>
        </mxCell>
        <mxCell id="kJ7-zAYFYXH6Av_gGips-31" value="" style="endArrow=none;dashed=1;html=1;rounded=0;strokeWidth=5;" edge="1" parent="1">
          <mxGeometry width="50" height="50" relative="1" as="geometry">
            <mxPoint x="-420" y="550" as="sourcePoint" />
            <mxPoint x="-420" y="510" as="targetPoint" />
          </mxGeometry>
        </mxCell>
        <mxCell id="kJ7-zAYFYXH6Av_gGips-32" value="«component»&lt;br&gt;ATM&lt;br&gt;[Software System]" style="html=1;dropTarget=0;whiteSpace=wrap;" vertex="1" parent="1">
          <mxGeometry x="-50" y="650" width="180" height="90" as="geometry" />
        </mxCell>
        <mxCell id="kJ7-zAYFYXH6Av_gGips-33" value="" style="shape=module;jettyWidth=8;jettyHeight=4;" vertex="1" parent="kJ7-zAYFYXH6Av_gGips-32">
          <mxGeometry x="1" width="20" height="20" relative="1" as="geometry">
            <mxPoint x="-27" y="7" as="offset" />
          </mxGeometry>
        </mxCell>
        <mxCell id="kJ7-zAYFYXH6Av_gGips-34" style="edgeStyle=none;rounded=0;html=1;dashed=1;labelBackgroundColor=none;startArrow=none;startFill=0;startSize=8;endArrow=open;endFill=0;endSize=16;fontFamily=Verdana;fontSize=12;entryX=0.5;entryY=1;entryDx=0;entryDy=0;" edge="1" parent="1" target="pfnRBpDnnf5gN-3sMGlf-75">
          <mxGeometry relative="1" as="geometry">
            <mxPoint x="20.299999999999955" y="740" as="sourcePoint" />
            <mxPoint x="500" y="910" as="targetPoint" />
            <Array as="points">
              <mxPoint x="20" y="920" />
              <mxPoint x="425" y="920" />
            </Array>
          </mxGeometry>
        </mxCell>
        <mxCell id="kJ7-zAYFYXH6Av_gGips-35" value="uses" style="edgeLabel;html=1;align=center;verticalAlign=middle;resizable=0;points=[];" vertex="1" connectable="0" parent="kJ7-zAYFYXH6Av_gGips-34">
          <mxGeometry x="0.0789" y="4" relative="1" as="geometry">
            <mxPoint as="offset" />
          </mxGeometry>
        </mxCell>
        <mxCell id="kJ7-zAYFYXH6Av_gGips-38" style="edgeStyle=none;rounded=0;html=1;dashed=1;labelBackgroundColor=none;startArrow=none;startFill=0;startSize=8;endArrow=open;endFill=0;endSize=16;fontFamily=Verdana;fontSize=12;exitX=0.611;exitY=1.044;exitDx=0;exitDy=0;exitPerimeter=0;" edge="1" parent="1" source="kJ7-zAYFYXH6Av_gGips-32">
          <mxGeometry relative="1" as="geometry">
            <mxPoint x="30.299999999999955" y="750" as="sourcePoint" />
            <mxPoint x="270" y="710" as="targetPoint" />
            <Array as="points">
              <mxPoint x="60" y="800" />
              <mxPoint x="270" y="800" />
            </Array>
          </mxGeometry>
        </mxCell>
        <mxCell id="kJ7-zAYFYXH6Av_gGips-39" value="uses" style="edgeLabel;html=1;align=center;verticalAlign=middle;resizable=0;points=[];" vertex="1" connectable="0" parent="kJ7-zAYFYXH6Av_gGips-38">
          <mxGeometry x="0.0789" y="4" relative="1" as="geometry">
            <mxPoint as="offset" />
          </mxGeometry>
        </mxCell>
        <mxCell id="kJ7-zAYFYXH6Av_gGips-40" style="edgeStyle=none;rounded=0;html=1;dashed=1;labelBackgroundColor=none;startArrow=none;startFill=0;startSize=8;endArrow=open;endFill=0;endSize=16;fontFamily=Verdana;fontSize=12;entryX=0.883;entryY=-0.006;entryDx=0;entryDy=0;entryPerimeter=0;exitX=0.75;exitY=0;exitDx=0;exitDy=0;" edge="1" parent="1" source="pfnRBpDnnf5gN-3sMGlf-75" target="pfnRBpDnnf5gN-3sMGlf-102">
          <mxGeometry relative="1" as="geometry">
            <mxPoint x="430" y="60" as="sourcePoint" />
            <mxPoint x="-140" y="630" as="targetPoint" />
            <Array as="points">
              <mxPoint x="390" y="460" />
              <mxPoint x="-110" y="460" />
            </Array>
          </mxGeometry>
        </mxCell>
        <mxCell id="kJ7-zAYFYXH6Av_gGips-41" value="uses" style="edgeLabel;html=1;align=center;verticalAlign=middle;resizable=0;points=[];" vertex="1" connectable="0" parent="kJ7-zAYFYXH6Av_gGips-40">
          <mxGeometry x="0.0789" y="4" relative="1" as="geometry">
            <mxPoint as="offset" />
          </mxGeometry>
        </mxCell>
        <mxCell id="kJ7-zAYFYXH6Av_gGips-42" style="edgeStyle=none;rounded=0;html=1;dashed=1;labelBackgroundColor=none;startArrow=none;startFill=0;startSize=8;endArrow=open;endFill=0;endSize=16;fontFamily=Verdana;fontSize=12;entryX=0.883;entryY=-0.006;entryDx=0;entryDy=0;entryPerimeter=0;exitX=0;exitY=0.5;exitDx=0;exitDy=0;" edge="1" parent="1" source="pfnRBpDnnf5gN-3sMGlf-68">
          <mxGeometry relative="1" as="geometry">
            <mxPoint x="390" y="121" as="sourcePoint" />
            <mxPoint x="-167" y="630" as="targetPoint" />
            <Array as="points">
              <mxPoint x="20" y="620" />
              <mxPoint x="-110" y="600" />
              <mxPoint x="-167" y="600" />
            </Array>
          </mxGeometry>
        </mxCell>
        <mxCell id="kJ7-zAYFYXH6Av_gGips-43" value="uses" style="edgeLabel;html=1;align=center;verticalAlign=middle;resizable=0;points=[];" vertex="1" connectable="0" parent="kJ7-zAYFYXH6Av_gGips-42">
          <mxGeometry x="0.0789" y="4" relative="1" as="geometry">
            <mxPoint as="offset" />
          </mxGeometry>
        </mxCell>
        <mxCell id="kJ7-zAYFYXH6Av_gGips-44" style="edgeStyle=none;rounded=0;html=1;dashed=1;labelBackgroundColor=none;startArrow=none;startFill=0;startSize=8;endArrow=open;endFill=0;endSize=16;fontFamily=Verdana;fontSize=12;exitX=0.667;exitY=0.013;exitDx=0;exitDy=0;exitPerimeter=0;" edge="1" parent="1" source="pfnRBpDnnf5gN-3sMGlf-19">
          <mxGeometry relative="1" as="geometry">
            <mxPoint x="950" y="30" as="sourcePoint" />
            <mxPoint x="-102" y="640" as="targetPoint" />
            <Array as="points">
              <mxPoint x="970" y="20" />
              <mxPoint x="-110" y="10" />
              <mxPoint x="-120" y="470" />
            </Array>
          </mxGeometry>
        </mxCell>
        <mxCell id="kJ7-zAYFYXH6Av_gGips-45" value="uses" style="edgeLabel;html=1;align=center;verticalAlign=middle;resizable=0;points=[];" vertex="1" connectable="0" parent="kJ7-zAYFYXH6Av_gGips-44">
          <mxGeometry x="0.0789" y="4" relative="1" as="geometry">
            <mxPoint as="offset" />
          </mxGeometry>
        </mxCell>
      </root>
    </mxGraphModel>
  </diagram>
</mxfile>
